# xmcd
#
# Track frame offsets: 
#        150
#        17317
#        33244
#        51775
#        65161
#        92929
#        110782
#        127585
#        158654
#        176011
#        194324
#        213246
#        240450
#
# Disc length: 3430 seconds
#
# Revision: 0
# Processed by: cddbd v1.5.2PL0 Copyright (c) Steve Scherf et al.
# Submitted via: ExactAudioCopy v1.0b4
#
DISCID=a60d640d
DTITLE=Curtis Matheson - A Particular Blue
DYEAR=2014
DGENRE=Electric Blues, Blues Rock
TTITLE0=Lookout!
TTITLE1=Hideaway
TTITLE2=Tell Me
TTITLE3=Another Day, Another Time
TTITLE4=In A Dark Place
TTITLE5=You Ain't Foolin' Me
TTITLE6=Blow Wind Blow
TTITLE7=Fireball
TTITLE8=If I Had Possession Over Judgement Day
TTITLE9=Another Fool
TTITLE10=Me, Myself, And I
TTITLE11=Ain't Nobody's Business If I Do
TTITLE12=You Don't Know My Mind
EXTD=
EXTT0=
EXTT1=
EXTT2=
EXTT3=
EXTT4=
EXTT5=
EXTT6=
EXTT7=
EXTT8=
EXTT9=
EXTT10=
EXTT11=
EXTT12=
PLAYORDER=
